#N canvas 75 23 1366 667 10;
#X obj 192 314 tgl 15 0 empty empty empty 17 7 0 10 -262144 -1 -1 1
1;
#X obj 275 419 vol~;
#X obj 201 419 vol~;
#X obj 347 419 vol~;
#X obj 420 419 vol~;
#X obj 764 417 vol~;
#X obj 545 417 vol~;
#X obj 691 417 vol~;
#X obj 619 416 vol~;
#X obj 192 356 bng 15 250 50 0 empty empty empty 17 7 0 10 -262144
-1 -1;
#X msg 317 378 0.25;
#X msg 389 379 0.5;
#X msg 243 377 0;
#X msg 462 379 0.75;
#X obj 462 341 bng 15 250 50 0 empty empty empty 17 7 0 10 -262144
-1 -1;
#X text 488 926 output;
#X text 172 218 counterclockwise;
#X obj 222 398 wave;
#X obj 296 398 wave;
#X obj 368 399 wave;
#X obj 441 399 wave;
#X obj 462 322 loadbang;
#X obj 192 333 metro 50;
#X obj 536 312 tgl 15 0 empty empty empty 17 7 0 10 -262144 -1 -1 1
1;
#X obj 536 354 bng 15 250 50 0 empty empty empty 17 7 0 10 -262144
-1 -1;
#X msg 661 376 0.25;
#X msg 733 377 0.5;
#X msg 587 375 0;
#X msg 806 377 0.75;
#X obj 806 339 bng 15 250 50 0 empty empty empty 17 7 0 10 -262144
-1 -1;
#X obj 566 396 wave;
#X obj 640 397 wave;
#X obj 712 397 wave;
#X obj 785 397 wave;
#X obj 806 320 loadbang;
#X obj 536 331 metro 50;
#X text 743 226 clockwise;
#X obj 450 621 clip~ -1 1;
#X obj 533 621 clip~ -1 1;
#X obj 370 620 clip~ -1 1;
#X obj 611 622 clip~ -1 1;
#X obj 365 257 / 4000;
#X obj 382 66 pd_bpm;
#X obj 631 259 / 16;
#X obj 371 578 +~;
#X obj 451 579 +~;
#X obj 533 580 +~;
#X obj 613 580 +~;
#X obj 370 598 +~;
#X obj 450 599 +~;
#X obj 532 600 +~;
#X obj 612 600 +~;
#X obj 371 664 vu 15 120 empty empty -1 -8 0 10 -66577 -1 1 0;
#X obj 370 641 pvu~;
#X obj 451 665 vu 15 120 empty empty -1 -8 0 10 -66577 -1 1 0;
#X obj 450 642 pvu~;
#X obj 534 666 vu 15 120 empty empty -1 -8 0 10 -66577 -1 1 0;
#X obj 533 643 pvu~;
#X obj 613 666 vu 15 120 empty empty -1 -8 0 10 -66577 -1 1 0;
#X obj 612 643 pvu~;
#X obj 586 92 s bpm;
#X obj 469 891 dac~ 1 2 6 5;
#X obj 241 64 metro 20;
#X obj 219 28 tgl 15 0 empty empty empty 17 7 0 10 -262144 -1 -1 0
1;
#X obj 112 280 osc~ 200;
#X obj 855 288 osc~ 0;
#X text 829 539 play all 4 ch;
#X obj 726 536 osc~ 0;
#X connect 0 0 22 0;
#X connect 1 0 45 0;
#X connect 2 0 44 0;
#X connect 3 0 46 0;
#X connect 4 0 47 0;
#X connect 5 0 45 1;
#X connect 6 0 44 1;
#X connect 7 0 46 1;
#X connect 8 0 47 1;
#X connect 9 0 17 0;
#X connect 9 0 18 0;
#X connect 9 0 19 0;
#X connect 9 0 20 0;
#X connect 10 0 18 2;
#X connect 11 0 19 2;
#X connect 12 0 17 2;
#X connect 13 0 20 2;
#X connect 14 0 12 0;
#X connect 14 0 10 0;
#X connect 14 0 11 0;
#X connect 14 0 13 0;
#X connect 17 0 2 1;
#X connect 18 0 1 1;
#X connect 19 0 3 1;
#X connect 20 0 4 1;
#X connect 21 0 14 0;
#X connect 21 0 0 0;
#X connect 22 0 9 0;
#X connect 23 0 35 0;
#X connect 24 0 30 0;
#X connect 24 0 31 0;
#X connect 24 0 32 0;
#X connect 24 0 33 0;
#X connect 25 0 31 2;
#X connect 26 0 32 2;
#X connect 27 0 30 2;
#X connect 28 0 33 2;
#X connect 29 0 27 0;
#X connect 29 0 25 0;
#X connect 29 0 26 0;
#X connect 29 0 28 0;
#X connect 30 0 6 1;
#X connect 31 0 8 1;
#X connect 32 0 7 1;
#X connect 33 0 5 1;
#X connect 34 0 29 0;
#X connect 34 0 23 0;
#X connect 35 0 24 0;
#X connect 37 0 61 1;
#X connect 38 0 61 2;
#X connect 39 0 61 0;
#X connect 40 0 61 3;
#X connect 41 0 17 1;
#X connect 41 0 18 1;
#X connect 41 0 19 1;
#X connect 41 0 20 1;
#X connect 42 0 41 0;
#X connect 42 1 43 0;
#X connect 42 2 60 0;
#X connect 43 0 30 1;
#X connect 43 0 31 1;
#X connect 43 0 32 1;
#X connect 43 0 33 1;
#X connect 44 0 48 0;
#X connect 45 0 49 0;
#X connect 46 0 50 0;
#X connect 47 0 51 0;
#X connect 48 0 39 0;
#X connect 48 0 53 0;
#X connect 49 0 37 0;
#X connect 49 0 55 0;
#X connect 50 0 38 0;
#X connect 50 0 57 0;
#X connect 51 0 40 0;
#X connect 51 0 59 0;
#X connect 53 0 52 0;
#X connect 55 0 54 0;
#X connect 57 0 56 0;
#X connect 59 0 58 0;
#X connect 62 0 42 0;
#X connect 63 0 62 0;
#X connect 64 0 1 0;
#X connect 64 0 2 0;
#X connect 64 0 3 0;
#X connect 64 0 4 0;
#X connect 65 0 5 0;
#X connect 65 0 6 0;
#X connect 65 0 7 0;
#X connect 65 0 8 0;
#X connect 67 0 48 1;
#X connect 67 0 49 1;
#X connect 67 0 50 1;
#X connect 67 0 51 1;
